<?xml version="1.0" standalone="no"?>
<!DOCTYPE svg PUBLIC "-//W3C//DTD SVG 20010904//EN"
 "http://www.w3.org/TR/2001/REC-SVG-20010904/DTD/svg10.dtd">
<svg version="1.0" xmlns="http://www.w3.org/2000/svg"
 width="2000.000000pt" height="2000.000000pt" viewBox="0 0 2000.000000 2000.000000"
 preserveAspectRatio="xMidYMid meet">
<metadata>
Created by potrace 1.14, written by Peter Selinger 2001-2017
</metadata>
<g transform="translate(0.000000,2000.000000) scale(0.100000,-0.100000)"
fill="#000000" stroke="none">
<path d="M3740 10110 l0 -6080 912 2 913 3 199 478 199 477 81 0 81 -1 45 -56
c66 -82 282 -297 385 -384 384 -324 667 -481 1037 -575 388 -98 944 -131 1363
-79 803 97 1458 456 1980 1086 464 559 765 1325 889 2259 54 405 70 681 70
1175 0 661 -42 1119 -150 1640 -125 604 -354 1161 -637 1557 -592 827 -1368
1262 -2327 1306 -594 28 -1129 -68 -1532 -274 -417 -214 -816 -563 -1078 -943
-44 -65 -46 -66 -94 -69 l-49 -3 6 63 c80 790 87 1019 87 2891 l0 1607 -1190
0 -1190 0 0 -6080z m4315 895 c146 -21 264 -58 400 -125 231 -115 393 -264
566 -522 326 -484 467 -1177 438 -2150 -31 -1031 -307 -1772 -797 -2140 -167
-126 -332 -198 -544 -239 -99 -19 -136 -21 -322 -16 -243 5 -394 27 -571 84
-486 156 -761 477 -935 1093 -104 370 -154 770 -166 1338 -24 1088 166 1898
533 2282 210 221 539 364 918 399 145 13 372 12 480 -4z"/>
<path d="M14735 6470 c-49 -5 -133 -16 -185 -26 -314 -55 -653 -247 -805 -454
-128 -174 -201 -434 -212 -755 -17 -463 94 -814 327 -1044 404 -396 1214 -490
1783 -205 348 175 539 451 602 871 20 134 23 430 6 568 -37 289 -142 527 -298
677 -119 113 -331 234 -522 297 -179 60 -485 91 -696 71z"/>
</g>
</svg>
